<svg width="24" height="24" viewBox="0 0 24 24" fill="none" xmlns="http://www.w3.org/2000/svg">
<path d="M4.5262 21.0775V19.8672C4.5262 19.4033 4.2438 19.1007 3.75968 19.1007C3.51763 19.1007 3.25538 19.1814 3.07385 19.4436C2.93265 19.2217 2.73093 19.1007 2.42835 19.1007C2.22663 19.1007 2.02492 19.1612 1.86355 19.3831V19.141H1.43994V21.0775H1.86355V20.0084C1.86355 19.6655 2.04509 19.5041 2.32749 19.5041C2.6099 19.5041 2.7511 19.6857 2.7511 20.0084V21.0775H3.1747V20.0084C3.1747 19.6655 3.37643 19.5041 3.63865 19.5041C3.92105 19.5041 4.06225 19.6857 4.06225 20.0084V21.0775H4.5262ZM10.7996 19.141H10.1137V18.556H9.69013V19.141H9.30688V19.5243H9.69013V20.4118C9.69013 20.8556 9.87168 21.1178 10.3558 21.1178C10.5373 21.1178 10.7391 21.0573 10.8803 20.9766L10.7592 20.6136C10.6382 20.6942 10.497 20.7144 10.3961 20.7144C10.1944 20.7144 10.1137 20.5934 10.1137 20.3917V19.5243H10.7996V19.141ZM14.3901 19.1007C14.1481 19.1007 13.9867 19.2217 13.8858 19.3831V19.141H13.4622V21.0775H13.8858V19.9882C13.8858 19.6655 14.027 19.4839 14.2893 19.4839C14.37 19.4839 14.4708 19.5041 14.5515 19.5243L14.6725 19.1209C14.5918 19.1007 14.4708 19.1007 14.3901 19.1007ZM8.96395 19.3024C8.76223 19.1612 8.47983 19.1007 8.17725 19.1007C7.69313 19.1007 7.3704 19.3427 7.3704 19.726C7.3704 20.0487 7.61245 20.2303 8.03605 20.2908L8.23778 20.311C8.45965 20.3513 8.5807 20.4118 8.5807 20.5127C8.5807 20.6539 8.41933 20.7548 8.13693 20.7548C7.8545 20.7548 7.63263 20.6539 7.49143 20.553L7.2897 20.8758C7.5116 21.0372 7.81418 21.1178 8.11675 21.1178C8.68155 21.1178 9.0043 20.8556 9.0043 20.4925C9.0043 20.1496 8.74205 19.9681 8.33863 19.9075L8.13693 19.8874C7.95538 19.8672 7.81418 19.8269 7.81418 19.7058C7.81418 19.5646 7.95538 19.4839 8.17725 19.4839C8.41933 19.4839 8.66138 19.5848 8.7824 19.6453L8.96395 19.3024ZM20.2197 19.1007C19.9777 19.1007 19.8163 19.2217 19.7154 19.3831V19.141H19.2918V21.0775H19.7154V19.9882C19.7154 19.6655 19.8566 19.4839 20.1189 19.4839C20.1995 19.4839 20.3004 19.5041 20.3811 19.5243L20.5021 19.1209C20.4214 19.1007 20.3004 19.1007 20.2197 19.1007ZM14.8137 20.1093C14.8137 20.6942 15.2172 21.1178 15.8425 21.1178C16.1249 21.1178 16.3266 21.0573 16.5283 20.896L16.3266 20.553C16.1652 20.6741 16.0039 20.7346 15.8223 20.7346C15.4794 20.7346 15.2373 20.4925 15.2373 20.1093C15.2373 19.7462 15.4794 19.5041 15.8223 19.4839C16.0039 19.4839 16.1652 19.5445 16.3266 19.6655L16.5283 19.3226C16.3266 19.1612 16.1249 19.1007 15.8425 19.1007C15.2172 19.1007 14.8137 19.5243 14.8137 20.1093ZM18.727 20.1093V19.141H18.3034V19.3831C18.1622 19.2015 17.9605 19.1007 17.6983 19.1007C17.1536 19.1007 16.73 19.5243 16.73 20.1093C16.73 20.6942 17.1536 21.1178 17.6983 21.1178C17.9807 21.1178 18.1824 21.017 18.3034 20.8354V21.0775H18.727V20.1093ZM17.1738 20.1093C17.1738 19.7663 17.3957 19.4839 17.7588 19.4839C18.1017 19.4839 18.3438 19.7462 18.3438 20.1093C18.3438 20.4522 18.1017 20.7346 17.7588 20.7346C17.3957 20.7144 17.1738 20.4522 17.1738 20.1093ZM12.1107 19.1007C11.5459 19.1007 11.1425 19.5041 11.1425 20.1093C11.1425 20.7144 11.5459 21.1178 12.1309 21.1178C12.4133 21.1178 12.6957 21.0372 12.9176 20.8556L12.7159 20.553C12.5545 20.6741 12.3528 20.7548 12.1511 20.7548C11.8888 20.7548 11.6266 20.6337 11.5661 20.2908H12.9983V20.1294C13.0185 19.5041 12.6554 19.1007 12.1107 19.1007ZM12.1107 19.4638C12.373 19.4638 12.5545 19.6251 12.5949 19.9277H11.5863C11.6266 19.6655 11.8082 19.4638 12.1107 19.4638ZM22.6201 20.1093V18.3745H22.1965V19.3831C22.0553 19.2015 21.8536 19.1007 21.5914 19.1007C21.0468 19.1007 20.6232 19.5243 20.6232 20.1093C20.6232 20.6942 21.0468 21.1178 21.5914 21.1178C21.8738 21.1178 22.0755 21.017 22.1965 20.8354V21.0775H22.6201V20.1093ZM21.0669 20.1093C21.0669 19.7663 21.2888 19.4839 21.6519 19.4839C21.9948 19.4839 22.2369 19.7462 22.2369 20.1093C22.2369 20.4522 21.9948 20.7346 21.6519 20.7346C21.2888 20.7144 21.0669 20.4522 21.0669 20.1093ZM6.90645 20.1093V19.141H6.48285V19.3831C6.34165 19.2015 6.13993 19.1007 5.8777 19.1007C5.33305 19.1007 4.90945 19.5243 4.90945 20.1093C4.90945 20.6942 5.33305 21.1178 5.8777 21.1178C6.1601 21.1178 6.3618 21.017 6.48285 20.8354V21.0775H6.90645V20.1093ZM5.33305 20.1093C5.33305 19.7663 5.55495 19.4839 5.91803 19.4839C6.26095 19.4839 6.503 19.7462 6.503 20.1093C6.503 20.4522 6.26095 20.7346 5.91803 20.7346C5.55495 20.7144 5.33305 20.4522 5.33305 20.1093Z" fill="black"/>
<path d="M15.1773 4.43555H8.82324V15.8527H15.1773V4.43555Z" fill="#FF5F00"/>
<path d="M9.22637 10.1441C9.22637 7.82437 10.3156 5.76685 11.9899 4.43552C10.7594 3.4673 9.2062 2.88232 7.51178 2.88232C3.49762 2.88232 0.25 6.12995 0.25 10.1441C0.25 14.1582 3.49762 17.4059 7.51178 17.4059C9.2062 17.4059 10.7594 16.8209 11.9899 15.8527C10.3156 14.5415 9.22637 12.4638 9.22637 10.1441Z" fill="#EB001B"/>
<path d="M23.7501 10.1441C23.7501 14.1582 20.5025 17.4059 16.4884 17.4059C14.794 17.4059 13.2407 16.8209 12.0103 15.8527C13.7047 14.5213 14.7738 12.4638 14.7738 10.1441C14.7738 7.82437 13.6845 5.76685 12.0103 4.43552C13.2407 3.4673 14.794 2.88232 16.4884 2.88232C20.5025 2.88232 23.7501 6.15012 23.7501 10.1441Z" fill="#F79E1B"/>
</svg>
